<svg id="Layer_1" data-name="Layer 1" xmlns="http://www.w3.org/2000/svg" xmlns:xlink="http://www.w3.org/1999/xlink" viewBox="0 0 216.38 462.9"><defs><style>.cls-1{fill:none;}.cls-2{fill:#2f2e41;}.cls-3{clip-path:url(#clip-path);}.cls-4{fill:#ffb7b7;}</style><clipPath id="clip-path" transform="translate(-422.8 -119.1)"><rect class="cls-1" x="376.6" y="81" width="318" height="503.6"/></clipPath></defs><path class="cls-2" d="M625.7,582H573.1v-.7a20.53,20.53,0,0,1,20.5-20.5h32.1Z" transform="translate(-422.8 -119.1)"/><path class="cls-2" d="M471.1,582l-48.3-20.7.3-.6A20.53,20.53,0,0,1,450,549.9h0l29.5,12.6Z" transform="translate(-422.8 -119.1)"/><g class="cls-3"><path class="cls-4" d="M459.9,265.1a15,15,0,0,1,1.1,1.3l49.6-1.2,5.8-10.6,17.1,6.6L525,281a8,8,0,0,1-8.3,4.8l-56-6.8a10.46,10.46,0,1,1-1.7-14.7,6.47,6.47,0,0,1,.9.8Z" transform="translate(-422.8 -119.1)"/><polygon class="cls-4" points="198.7 447.1 182.4 447.1 174.7 384.2 198.7 384.2 198.7 447.1"/><polygon class="cls-4" points="50.7 446.8 35.7 440.4 53.3 379.5 75.4 388.9 50.7 446.8"/><polygon class="cls-4" points="119.5 159.6 118.3 178.7 152.8 182.4 188.8 186.3 178.2 157.3 119.5 159.6"/><path class="cls-2" d="M540.5,285.8l-13.9-81.1,23.2-7.6,6.8-9.3,33.2,2,4.9,10.9,17.7,8.4-2.7,50.5-4.8,23.5-.6-.3c-23.9-12.4-62.8,2.8-63.2,2.9Z" transform="translate(-422.8 -119.1)"/><path class="cls-2" d="M531.6,273.1,508,263.7l.1-.4c.1-.4,10.1-42.4,11.5-49.1,1.4-7,6.5-9,6.7-9l.2-.1,9.3,2.8,4.1,32.2Z" transform="translate(-422.8 -119.1)"/><path class="cls-2" d="M485.7,554.8l-31.4-6.4,50.2-138.5,17.2-47.3s10.9-37.9,15.8-52.6l3-19.7,70.3,7.8S630.4,327,624.5,374l2.7,176.8-31.4,1.6L569.5,374.1l-46.2,97.7s-14.6,41.7-25,50.7Z" transform="translate(-422.8 -119.1)"/><path class="cls-4" d="M582.6,304.7a9.7,9.7,0,0,1,1.7.1l32.8-37.2-3.8-11.4,16.5-8,8.7,19.6a8.15,8.15,0,0,1-2.1,9.4l-43,36.5a10.52,10.52,0,1,1-12-8.8,2.17,2.17,0,0,1,1.2-.2Z" transform="translate(-422.8 -119.1)"/><path class="cls-2" d="M614.4,271.2,600.7,239l5.3-22.4,5.8-7.3a3.19,3.19,0,0,1,2.7,0q3.15,1.35,5.4,7.8l12.8,36.5Z" transform="translate(-422.8 -119.1)"/><path class="cls-2" d="M543.4,175.9V151.6a32.5,32.5,0,0,1,65,0v24.3a4.44,4.44,0,0,1-4.4,4.4H547.7A4.42,4.42,0,0,1,543.4,175.9Z" transform="translate(-422.8 -119.1)"/><circle class="cls-4" cx="146.4" cy="36.7" r="23.9"/><path class="cls-2" d="M535.7,153.6a25.69,25.69,0,0,1,25.7-25.7h4.9A25.69,25.69,0,0,1,592,153.6v.5H581.7l-3.5-9.8-.7,9.8h-5.3l-1.8-4.9-.4,4.9H535.6l.1-.5Z" transform="translate(-422.8 -119.1)"/><path class="cls-2" d="M566.9,183a4.25,4.25,0,0,1-.3-4.6c5.1-9.8,12.4-27.9,2.8-39l-.7-.8h27.8v41.7l-25.2,4.4c-.3,0-.5.1-.8.1A4.4,4.4,0,0,1,566.9,183Z" transform="translate(-422.8 -119.1)"/></g></svg>